<svg width="108" height="35" viewBox="0 0 108 35" fill="none" xmlns="http://www.w3.org/2000/svg">
<g clip-path="url(#clip0_14_1274)">
<path d="M30.1064 24.85C30.1064 27.6569 29.1877 30.008 27.3502 31.9035C25.5146 33.7984 23.2315 34.7461 20.5007 34.7468H12.4517V21.3165H17.6471V29.8539H20.5007C21.876 29.8539 22.9966 29.3962 23.8624 28.481C24.7296 27.5689 25.1626 26.3586 25.1613 24.85C25.1613 23.3414 24.7283 22.1298 23.8624 21.2152C22.9972 20.3013 21.8766 19.8443 20.5007 19.8443H9.59807C8.07159 19.8669 6.56211 19.5212 5.19722 18.8366C5.10935 18.7926 5.02148 18.7448 4.93554 18.697C4.12697 18.2435 3.38997 17.6727 2.74852 17.003C1.00697 15.2206 0.0220231 12.8327 0 10.3395L0 9.57267C0.0764283 6.9283 0.992629 4.70142 2.7486 2.89203C4.58414 0.99723 6.8673 0.0494953 9.59807 0.0488281H17.6471V13.481H12.4517V4.94177H9.59807C8.22282 4.94177 7.10226 5.39875 6.23639 6.3127C5.36921 7.22671 4.93562 8.43767 4.93562 9.94559C4.93562 11.4561 5.36921 12.6677 6.23639 13.5804C7.10163 14.4944 8.22219 14.952 9.59807 14.9533H20.5007C23.2321 14.9533 25.5153 15.8997 27.3502 17.7927C29.1877 19.6875 30.1064 22.04 30.1064 24.85Z" fill="#4A4A4A"/>
<path d="M48.7829 0H44.1392L39.2188 14.9261H43.3512L43.9902 12.7724H48.9532L49.5923 14.9261H53.7034L48.7829 0ZM44.97 9.4888L46.4611 4.41394L47.9734 9.4888H44.97Z" fill="#E97522"/>
<path d="M60.8599 1.24557e-08H54.7891V9.90914H58.7084V3.68889H60.8599C61.3314 3.67211 61.8011 3.75561 62.2381 3.93388C62.675 4.11216 63.0692 4.38115 63.3947 4.72312C64.0476 5.41269 64.3742 6.32601 64.3745 7.46306C64.3745 8.60042 64.0479 9.51373 63.3947 10.203C63.0692 10.545 62.675 10.814 62.2381 10.9923C61.8012 11.1706 61.3314 11.2541 60.8599 11.2372H54.7891V14.9261H60.8599C62.9186 14.9261 64.6404 14.2118 66.0252 12.7831C67.41 11.3545 68.1023 9.58111 68.1021 7.46306C68.1021 5.34512 67.4098 3.57176 66.0252 2.14299C64.6406 0.714222 62.9189 -0.000108915 60.8599 1.24557e-08Z" fill="#E97522"/>
<path d="M75.9399 1.24557e-08H69.8692V3.68889H75.9399C76.4115 3.67211 76.8812 3.75561 77.3181 3.93388C77.7551 4.11215 78.1493 4.38115 78.4747 4.72312C79.1277 5.41275 79.4543 6.32606 79.4545 7.46306C79.4545 8.60042 79.1279 9.51373 78.4747 10.203C78.1493 10.545 77.7551 10.814 77.3182 10.9923C76.8812 11.1706 76.4115 11.254 75.9399 11.2372H73.7885V5.01698H69.8691V14.9261H75.9399C77.9987 14.9261 79.7205 14.2118 81.1053 12.7831C82.4901 11.3545 83.1824 9.58111 83.1821 7.46306C83.1821 5.34512 82.4898 3.57176 81.1053 2.14299C79.7207 0.714222 77.9989 -0.000108915 75.9399 1.24557e-08Z" fill="#E97522"/>
<path d="M45.0125 19.7538C45.7104 19.7354 46.4049 19.8559 47.0559 20.1085C47.7068 20.3611 48.3011 20.7406 48.8043 21.225C49.8265 22.2061 50.3377 23.4571 50.3379 24.9781C50.3379 26.4994 49.8267 27.7503 48.8043 28.7308C48.3011 29.2153 47.7068 29.5949 47.0559 29.8475C46.405 30.1001 45.7104 30.2206 45.0125 30.2021H43.0314V34.6801H39.2188V19.7538H45.0125ZM45.0125 26.5772C45.2131 26.5815 45.4123 26.5439 45.5975 26.4668C45.7827 26.3897 45.9498 26.2747 46.0882 26.1294C46.2343 25.9765 46.3483 25.7959 46.4234 25.5981C46.4984 25.4003 46.533 25.1895 46.5251 24.9781C46.5337 24.7682 46.4994 24.5588 46.4242 24.3626C46.3491 24.1664 46.2348 23.9877 46.0882 23.8373C45.9482 23.6948 45.7806 23.5824 45.5956 23.5072C45.4106 23.432 45.2121 23.3955 45.0125 23.4H43.0314V26.5772H45.0125Z" fill="#B1B1B1"/>
<path d="M59.8374 19.7539H63.6289V34.6803H59.8374V28.9444H55.6408V34.6803H51.8281V19.7539H55.6408V25.2765H59.8374V19.7539Z" fill="#B1B1B1"/>
<path d="M78.7842 32.75C77.2966 34.1927 75.3066 34.9994 73.2353 34.9994C71.1641 34.9994 69.1741 34.1927 67.6864 32.75C66.9485 32.0334 66.3662 31.1721 65.9758 30.22C65.5855 29.2679 65.3955 28.2454 65.4178 27.2165C65.3956 26.1876 65.5856 25.1651 65.9759 24.213C66.3662 23.2609 66.9485 22.3996 67.6864 21.683C69.174 20.2403 71.1641 19.4336 73.2353 19.4336C75.3066 19.4336 77.2966 20.2403 78.7842 21.683C79.522 22.3997 80.1043 23.261 80.4946 24.2131C80.8849 25.1652 81.0749 26.1876 81.0528 27.2165C81.075 28.2454 80.885 29.2678 80.4947 30.2199C80.1043 31.172 79.5221 32.0333 78.7842 32.75ZM70.3596 30.1272C71.0363 30.8493 71.9433 31.3125 72.9245 31.437C73.9057 31.5616 74.8996 31.3396 75.7349 30.8094C76.5702 30.2792 77.1946 29.474 77.5005 28.5325C77.8065 27.5909 77.7748 26.5721 77.4109 25.6514C77.0471 24.7308 76.3738 23.966 75.5072 23.4889C74.6406 23.0117 73.6349 22.8521 72.6633 23.0375C71.6917 23.2229 70.8152 23.7417 70.1847 24.5045C69.5542 25.2673 69.2092 26.2264 69.2092 27.2165C69.1912 27.7547 69.2841 28.2909 69.482 28.7916C69.6799 29.2924 69.9786 29.747 70.3596 30.1272V30.1272Z" fill="#B1B1B1"/>
<path d="M92.3005 19.7539V23.4427H88.6152V34.6803H84.8025V23.4427H81.1172V19.7539H92.3005Z" fill="#B1B1B1"/>
<path d="M105.732 32.75C104.244 34.1927 102.254 34.9994 100.183 34.9994C98.1113 34.9994 96.1213 34.1927 94.6337 32.75C93.8958 32.0334 93.3134 31.1721 92.9231 30.22C92.5327 29.2679 92.3428 28.2454 92.365 27.2165C92.3428 26.1876 92.5328 25.1651 92.9232 24.213C93.3135 23.2609 93.8958 22.3996 94.6336 21.683C96.1213 20.2403 98.1113 19.4336 100.183 19.4336C102.254 19.4336 104.244 20.2403 105.731 21.683C106.469 22.3997 107.052 23.261 107.442 24.2131C107.832 25.1652 108.022 26.1876 108 27.2165C108.022 28.2454 107.832 29.2678 107.442 30.2199C107.052 31.172 106.469 32.0333 105.732 32.75V32.75ZM97.3068 30.1272C97.9835 30.8493 98.8906 31.3125 99.8718 31.437C100.853 31.5616 101.847 31.3396 102.682 30.8094C103.517 30.2792 104.142 29.474 104.448 28.5325C104.754 27.5909 104.722 26.5721 104.358 25.6514C103.994 24.7308 103.321 23.966 102.454 23.4889C101.588 23.0117 100.582 22.8521 99.6106 23.0375C98.639 23.2229 97.7625 23.7417 97.132 24.5045C96.5015 25.2673 96.1565 26.2264 96.1565 27.2165C96.1385 27.7547 96.2313 28.2909 96.4293 28.7916C96.6272 29.2924 96.9259 29.747 97.3068 30.1272V30.1272Z" fill="#B1B1B1"/>
</g>
<defs>
<clipPath id="clip0_14_1274">
<rect width="108" height="35" fill="white"/>
</clipPath>
</defs>
</svg>
